<svg xmlns="http://www.w3.org/2000/svg" version="1.1" xmlns:xlink="http://www.w3.org/1999/xlink" xmlns:svgjs="http://svgjs.dev/svgjs" width="1000" height="282" viewBox="0 0 1000 282"><g transform="matrix(1,0,0,1,-0.6060528709707,-0.5767189765433898)"><svg viewBox="0 0 396 112" data-background-color="#ffffff" preserveAspectRatio="xMidYMid meet" height="282" width="1000" xmlns="http://www.w3.org/2000/svg" xmlns:xlink="http://www.w3.org/1999/xlink"><g id="tight-bounds" transform="matrix(1,0,0,1,0.23999693690439017,0.2290515779592397)"><svg viewBox="0 0 395.52 111.54189691362636" height="111.54189691362636" width="395.52"><g><svg viewBox="0 0 593.3719074695396 167.3387644984052" height="111.54189691362636" width="395.52"><g transform="matrix(1,0,0,1,0,23.12713749579985)"><svg viewBox="0 0 395.52 121.0844895068055" height="121.0844895068055" width="395.52"><g id="textblocktransform"><svg viewBox="0 0 395.52 121.0844895068055" height="121.0844895068055" width="395.52" id="textblock"><g><svg viewBox="0 0 395.52 65.73246088193456" height="65.73246088193456" width="395.52"><g transform="matrix(1,0,0,1,0,0)"><svg width="395.52" viewBox="3.0999999046325684 -35 210.87998962402344 35.04999923706055" height="65.73246088193456" data-palette-color="#ba3b0a"><path d="M7.75 0L3.1 0 3.1-35 7.75-35 14.7-13.65 21.65-35 26.3-35 26.3 0 21.65 0 21.65-20.8 17-6.55 12.4-6.55 7.75-20.8 7.75 0ZM33.65 0.05L29 0.05 36.05-34.95 40.6-34.95 47.55 0.05 42.9 0.05 41.55-6.5 34.9-6.5 33.65 0.05ZM38.35-23.55L35.8-11.1 40.75-11.1 38.35-23.55ZM55.4 0L50.75 0 50.75-35 55.4-35 55.4-21.7 64.7-21.7 64.7-35 69.3-35 69.3 0 64.7 0 64.7-17.05 55.4-17.05 55.4 0ZM76.64 0.05L71.99 0.05 79.04-34.95 83.59-34.95 90.54 0.05 85.89 0.05 84.54-6.5 77.89-6.5 76.64 0.05ZM81.34-23.55L78.79-11.1 83.74-11.1 81.34-23.55ZM97.89 0L93.24 0 93.24-35 97.89-35 107.19-11.65 107.19-35 111.84-35 111.84 0 107.19 0 97.89-23.35 97.89 0ZM128.69 0L124.04 0 124.04-35 128.69-35 128.69-21.7 137.99-21.7 137.99-35 142.59-35 142.59 0 137.99 0 137.99-17.05 128.69-17.05 128.69 0ZM161.13 0L149.78 0Q148.38 0 147.33-1.05 146.28-2.1 146.28-3.65L146.28-3.65 146.28-31.35Q146.28-32.9 147.33-33.95 148.38-35 149.78-35L149.78-35 161.13-35Q162.73-35 163.76-33.95 164.78-32.9 164.78-31.35L164.78-31.35 164.78-3.65Q164.78-2.1 163.76-1.05 162.73 0 161.13 0L161.13 0ZM152.63-4.6L152.63-4.6 158.28-4.6Q159.13-4.6 159.66-5.15 160.18-5.7 160.18-6.5L160.18-6.5 160.18-28.5Q160.18-29.35 159.66-29.88 159.13-30.4 158.28-30.4L158.28-30.4 152.63-30.4Q151.93-30.4 151.41-29.88 150.88-29.35 150.88-28.5L150.88-28.5 150.88-6.5Q150.88-5.7 151.41-5.15 151.93-4.6 152.63-4.6ZM173.13 0L168.48 0 168.48-35 173.13-35 180.08-13.65 187.03-35 191.68-35 191.68 0 187.03 0 187.03-20.8 182.38-6.55 177.78-6.55 173.13-20.8 173.13 0ZM213.98 0L195.38 0 195.38-35 213.98-35 213.98-30.4 200.03-30.4 200.03-21.7 209.33-21.7 208.28-17.05 200.03-17.05 200.03-4.65 213.98-4.65 213.98 0Z" opacity="1" transform="matrix(1,0,0,1,0,0)" fill="#ba3b0a" class="wordmark-text-0" data-fill-palette-color="primary" id="text-0"></path></svg></g></svg></g><g transform="matrix(1,0,0,1,163.310208,81.25031731709814)"><svg viewBox="0 0 232.209792 39.83417218970736" height="39.83417218970736" width="232.209792"><g transform="matrix(1,0,0,1,0,0)"><svg width="232.209792" viewBox="5 -33.25 198.17999267578125 34" height="39.83417218970736" data-palette-color="#e8772e"><path d="M8.5-11.5L8.5 0 5 0 5-32.5 12.55-32.5Q16.45-32.5 18.48-30.65 20.5-28.8 20.5-25.5L20.5-25.5 20.5-18.5Q20.5-13.4 16.1-12L16.1-12 22.25 0 18.4 0 12.55-11.5 8.5-11.5ZM17-18.5L17-18.5 17-25.5Q17-27.4 15.85-28.45 14.7-29.5 12.55-29.5L12.55-29.5 8.5-29.5 8.5-14.5 12.55-14.5Q17-14.5 17-18.5ZM44-3L44 0 29.25 0 29.25-32.5 43.5-32.5 43.5-29.5 32.75-29.5 32.75-18 41.5-18 41.5-15 32.75-15 32.75-3 44-3ZM48.5 0L55.85-32.5 61.1-32.5 68.45 0 64.95 0 63.25-7.5 53.7-7.5 52 0 48.5 0ZM62.55-10.5L58.45-28.6 54.35-10.5 62.55-10.5ZM88.09 0L75.44 0 75.44-32.5 78.94-32.5 78.94-3 88.09-3 88.09 0ZM121.49-6.25L121.49-6.25Q121.49 0.75 113.04 0.75 104.59 0.75 104.59-6.25L104.59-6.25 104.59-10.5 108.09-10.5 108.09-6.05Q108.09-4.25 109.34-3.25 110.59-2.25 113.04-2.25 115.49-2.25 116.74-3.25 117.99-4.25 117.99-5.98 117.99-7.7 117.61-8.72 117.24-9.75 116.09-10.9L116.09-10.9 107.29-19.5Q105.74-21.05 105.16-22.53 104.59-24 104.59-26.25L104.59-26.25Q104.59-29.6 106.66-31.43 108.74-33.25 112.94-33.25L112.94-33.25Q120.99-33.25 120.99-26.25L120.99-26.25 120.99-22 117.49-22 117.49-26.45Q117.49-28.25 116.31-29.25 115.14-30.25 112.79-30.25 110.44-30.25 109.26-29.25 108.09-28.25 108.09-26.5 108.09-24.75 108.44-23.75 108.79-22.75 109.99-21.65L109.99-21.65 118.94-13.05Q120.39-11.45 120.94-9.98 121.49-8.5 121.49-6.25ZM126.99-32.5L143.49-32.5 143.49-29.5 136.99-29.5 136.99 0 133.49 0 133.49-29.5 126.99-29.5 126.99-32.5ZM144.98 0L152.33-32.5 157.58-32.5 164.93 0 161.43 0 159.73-7.5 150.18-7.5 148.48 0 144.98 0ZM159.03-10.5L154.93-28.6 150.83-10.5 159.03-10.5ZM165.43-32.5L181.93-32.5 181.93-29.5 175.43-29.5 175.43 0 171.93 0 171.93-29.5 165.43-29.5 165.43-32.5ZM203.18-3L203.18 0 188.43 0 188.43-32.5 202.68-32.5 202.68-29.5 191.93-29.5 191.93-18 200.68-18 200.68-15 191.93-15 191.93-3 203.18-3Z" opacity="1" transform="matrix(1,0,0,1,0,0)" fill="#e8772e" class="slogan-text-1" data-fill-palette-color="secondary" id="text-1"></path></svg></g></svg></g></svg></g></svg></g><g transform="matrix(1,0,0,1,411.0378564351636,0)"><svg viewBox="0 0 182.334051034376 167.3387644984052" height="167.3387644984052" width="182.334051034376"><g><svg version="1.1" xmlns="http://www.w3.org/2000/svg" xmlns:xlink="http://www.w3.org/1999/xlink" x="0" y="0" viewBox="0.14570336043834686 4.190000057220459 99.9990005493164 91.77500915527344" enable-background="new 0.146 4.189 100 91.775" xml:space="preserve" width="182.334051034376" height="167.3387644984052" class="icon-icon-0" data-fill-palette-color="accent" id="icon-0"><g fill="#e8772e" data-fill-palette-color="accent"><path d="M99.511 38.569L50.993 4.606c-0.513-0.359-1.195-0.359-1.708 0L0.779 38.569c-0.323 0.228-0.542 0.573-0.611 0.961-0.068 0.389 0.021 0.789 0.247 1.112l6.606 9.434c0.291 0.415 0.751 0.635 1.222 0.635 0.294 0 0.592-0.086 0.852-0.269l41.051-28.748 41.049 28.748c0.678 0.472 1.604 0.307 2.074-0.366l6.607-9.434c0.225-0.323 0.315-0.724 0.246-1.112C100.055 39.143 99.835 38.797 99.511 38.569z" fill="#e8772e" data-fill-palette-color="accent"></path><path d="M87.456 53.667l-36.457-25.53c-0.512-0.358-1.195-0.358-1.707 0L12.641 53.803c-0.398 0.277-0.635 0.733-0.635 1.22v39.454c0 0.82 0.667 1.488 1.49 1.488h25.502c0.822 0 1.489-0.668 1.489-1.488V60.095h19.32v34.382c0 0.82 0.666 1.488 1.489 1.488h25.309c0.823 0 1.486-0.668 1.486-1.488V54.886C88.09 54.4 87.855 53.946 87.456 53.667z" fill="#e8772e" data-fill-palette-color="accent"></path><path d="M74.213 15.768l11.411 7.99c0.256 0.178 0.554 0.269 0.854 0.269 0.236 0 0.474-0.056 0.688-0.167 0.49-0.256 0.801-0.766 0.801-1.321V5.678c0-0.822-0.667-1.488-1.489-1.488H75.065c-0.822 0-1.488 0.667-1.488 1.488v8.871C73.576 15.033 73.812 15.489 74.213 15.768z" fill="#e8772e" data-fill-palette-color="accent"></path></g></svg></g></svg></g></svg></g><defs></defs></svg><rect width="395.52" height="111.54189691362636" fill="none" stroke="none" visibility="hidden"></rect></g></svg></g></svg>